<svg id="Ebene_1" data-name="Ebene 1" xmlns="http://www.w3.org/2000/svg" viewBox="0 0 466.18 426.16"><defs><style>.cls-1,.cls-4{stroke:#000;stroke-miterlimit:10;stroke-width:3px;}.cls-2{fill:#69f;}.cls-3{fill:#ffe455;}.cls-4{fill:#fff;}</style></defs><polyline class="cls-1" points="201.46 170.9 201.46 183.13 201.46 204.71"/><rect x="561.77" y="363.79" width="20.34" height="3.54" transform="translate(-496.51 316.39) rotate(-45)"/><rect class="cls-2" x="510.02" y="169.12" width="39.21" height="230.52" rx="15.61" transform="translate(-451.5 262.69) rotate(-45)"/><rect class="cls-3" x="445.05" y="211.58" width="38.89" height="14.85" transform="translate(-424.34 197.49) rotate(-45)"/><rect class="cls-3" x="467.64" y="234.24" width="38.89" height="14.85" transform="translate(-433.76 220.1) rotate(-45)"/><rect class="cls-3" x="490.35" y="256.91" width="38.89" height="14.85" transform="translate(-443.13 242.8) rotate(-45)"/><rect class="cls-2" x="472.33" y="205.34" width="39.21" height="223.45" rx="15.61" transform="translate(-485.65 245.62) rotate(-45)"/><rect class="cls-3" x="410.34" y="247.47" width="38.89" height="14.85" transform="translate(-459.89 183.46) rotate(-45)"/><rect class="cls-3" x="432.93" y="270.14" width="38.89" height="14.85" transform="translate(-469.31 206.07) rotate(-45)"/><rect class="cls-3" x="455.64" y="292.81" width="38.89" height="14.85" transform="translate(-478.68 228.77) rotate(-45)"/><path class="cls-2" d="M613.15,365.56" transform="translate(-405.54 -195.1)"/><rect class="cls-2" x="185.01" y="202.71" width="39.21" height="223.45" rx="15.61"/><line class="cls-1" x1="264.72" y1="170.52" x2="264.72" y2="204.34"/><rect x="703.55" y="355.01" width="3.54" height="20.34" transform="translate(-457.18 410.59) rotate(-45)"/><rect class="cls-2" x="632.38" y="264.39" width="230.52" height="39.21" rx="15.61" transform="translate(-387.38 416.74) rotate(-45)"/><rect class="cls-3" x="805.33" y="199.18" width="14.85" height="38.89" transform="translate(-322.08 443.64) rotate(-45)"/><rect class="cls-3" x="782.75" y="221.84" width="14.85" height="38.89" transform="translate(-344.72 434.31) rotate(-45)"/><rect class="cls-3" x="760.04" y="244.51" width="14.85" height="38.89" transform="translate(-367.4 424.89) rotate(-45)"/><rect class="cls-2" x="673.6" y="297.08" width="223.45" height="39.21" rx="15.61" transform="translate(-399.45 452.96) rotate(-45)"/><rect class="cls-3" x="840.04" y="235.07" width="14.85" height="38.89" transform="translate(-337.29 478.69) rotate(-45)"/><rect class="cls-3" x="817.46" y="257.74" width="14.85" height="38.89" transform="translate(-359.94 469.36) rotate(-45)"/><rect class="cls-3" x="794.75" y="280.41" width="14.85" height="38.89" transform="translate(-382.61 459.95) rotate(-45)"/><path class="cls-2" d="M664.1,365.18" transform="translate(-405.54 -195.1)"/><rect class="cls-2" x="241.96" y="202.34" width="39.21" height="223.45" rx="15.61"/><rect class="cls-4" x="201.46" y="182.31" width="63.26" height="14.97"/></svg>