<svg id="Ebene_1" data-name="Ebene 1" xmlns="http://www.w3.org/2000/svg" viewBox="0 0 467.18 427.16"><defs><style>.cls-1,.cls-2{fill:#f2f2f2;stroke:#fff;stroke-miterlimit:10;}.cls-1{stroke-width:3px;}</style></defs><polyline class="cls-1" points="201.96 171.4 201.96 183.63 201.96 205.21"/><rect class="cls-2" x="561.77" y="363.79" width="20.34" height="3.54" transform="translate(-496.01 316.89) rotate(-45)"/><rect class="cls-2" x="510.02" y="169.12" width="39.21" height="230.52" rx="15.61" transform="translate(-451 263.19) rotate(-45)"/><rect class="cls-2" x="445.05" y="211.58" width="38.89" height="14.85" transform="translate(-423.84 197.99) rotate(-45)"/><rect class="cls-2" x="467.64" y="234.24" width="38.89" height="14.85" transform="translate(-433.26 220.6) rotate(-45)"/><rect class="cls-2" x="490.35" y="256.91" width="38.89" height="14.85" transform="translate(-442.63 243.3) rotate(-45)"/><rect class="cls-2" x="472.33" y="205.34" width="39.21" height="223.45" rx="15.61" transform="translate(-485.15 246.12) rotate(-45)"/><rect class="cls-2" x="410.34" y="247.47" width="38.89" height="14.85" transform="translate(-459.39 183.96) rotate(-45)"/><rect class="cls-2" x="432.93" y="270.14" width="38.89" height="14.85" transform="translate(-468.81 206.57) rotate(-45)"/><rect class="cls-2" x="455.64" y="292.81" width="38.89" height="14.85" transform="translate(-478.18 229.27) rotate(-45)"/><path class="cls-2" d="M613.15,365.56" transform="translate(-405.04 -194.6)"/><rect class="cls-2" x="185.51" y="203.21" width="39.21" height="223.45" rx="15.61"/><line class="cls-1" x1="265.22" y1="171.02" x2="265.22" y2="204.84"/><rect class="cls-2" x="703.55" y="355.01" width="3.54" height="20.34" transform="translate(-456.68 411.09) rotate(-45)"/><rect class="cls-2" x="632.38" y="264.39" width="230.52" height="39.21" rx="15.61" transform="translate(-386.88 417.24) rotate(-45)"/><rect class="cls-2" x="805.33" y="199.18" width="14.85" height="38.89" transform="translate(-321.58 444.14) rotate(-45)"/><rect class="cls-2" x="782.75" y="221.84" width="14.85" height="38.89" transform="translate(-344.22 434.81) rotate(-45)"/><rect class="cls-2" x="760.04" y="244.51" width="14.85" height="38.89" transform="translate(-366.9 425.39) rotate(-45)"/><rect class="cls-2" x="673.6" y="297.08" width="223.45" height="39.21" rx="15.61" transform="translate(-398.95 453.46) rotate(-45)"/><rect class="cls-2" x="840.04" y="235.07" width="14.85" height="38.89" transform="translate(-336.79 479.19) rotate(-45)"/><rect class="cls-2" x="817.46" y="257.74" width="14.85" height="38.89" transform="translate(-359.44 469.86) rotate(-45)"/><rect class="cls-2" x="794.75" y="280.41" width="14.85" height="38.89" transform="translate(-382.11 460.45) rotate(-45)"/><path class="cls-2" d="M664.1,365.18" transform="translate(-405.04 -194.6)"/><rect class="cls-2" x="242.46" y="202.84" width="39.21" height="223.45" rx="15.61"/><rect class="cls-1" x="201.96" y="182.81" width="63.26" height="14.97"/></svg>